<?xml version="1.0" encoding="utf-8"?>
<!DOCTYPE svg PUBLIC "-//W3C//DTD SVG 1.1//EN" "http://www.w3.org/Graphics/SVG/1.1/DTD/svg11.dtd">
<svg version="1.1" xmlns="http://www.w3.org/2000/svg" xmlns:xlink="http://www.w3.org/1999/xlink" x="0px" y="0px"
	 width="390.594px" height="120px" viewBox="0 0 390.594 120" enable-background="new 0 0 390.594 120" xml:space="preserve">
	<path fill="#4D4649" d="M0,92.399V85.2l10.2-2.4V18L0,15.6V9l22.8-0.6h12.6c8.88,0,15.699,2.201,20.46,6.6
		C60.619,19.4,63,25.4,63,33c0,9.201-2.82,16.2-8.46,21c-5.64,4.8-13.62,7.2-23.94,7.2h-7.8v21.6L33,85.2v7.199H0z M22.8,18v33.6
		h7.8c13.2,0,19.8-5.599,19.8-16.8c0-4.959-1.361-9-4.08-12.12C43.6,19.56,39.76,18,34.8,18H22.8z"/>
	<path fill="#4D4649" d="M83.76,0v36.24c6.798-5.76,13.599-8.64,20.4-8.64c6.799,0,11.799,1.901,15,5.7
		c3.199,3.801,4.8,9.102,4.8,15.9v33.6l9,3v6.6h-28.8v-6.6l7.8-2.88V50.4c0-4.32-0.8-7.5-2.4-9.54
		c-1.601-2.04-4.121-3.06-7.56-3.06c-1.68,0-3.321,0.221-4.92,0.66c-1.601,0.44-3.12,1.02-4.56,1.74
		c-1.44,0.72-2.721,1.5-3.84,2.34c-1.122,0.84-2.04,1.661-2.76,2.46l-2.16,2.4v35.4l7.8,3v6.6h-30v-6.6l10.2-3V9.6l-10.2-2.4V0.6
		L83.76,0z"/>
	<path fill="#4D4649" d="M152.519,28.8l0.96,6.72c5.599-5.28,11.68-7.92,18.24-7.92c8.479,0,14.898,2.78,19.26,8.34
		c4.359,5.561,6.54,13.46,6.54,23.7c0,4.96-0.66,9.521-1.98,13.679c-1.32,4.161-3.341,7.74-6.06,10.74
		c-2.721,3-6.101,5.34-10.14,7.021c-4.041,1.68-8.781,2.521-14.22,2.521c-3.36,0-6.96-0.562-10.8-1.681V111l12.6,2.399V120h-34.2
		v-6.601l9.6-2.399V38.4l-10.2-2.4v-6.6L152.519,28.8z M154.319,45.6v36c2.479,1.601,6.679,2.399,12.6,2.399c12,0,18-7.999,18-24
		c0-7.039-1.28-12.6-3.84-16.68c-2.561-4.08-6.48-6.12-11.76-6.12c-3.042,0-5.901,0.702-8.58,2.1
		C158.058,40.701,155.918,42.8,154.319,45.6z"/>
	<path fill="#4D4649" d="M222.478,28.8v54l9,3v6.6h-31.2v-6.6l10.2-3V38.4l-10.2-2.4v-6.6L222.478,28.8z"/>
	<path fill="#4D4649" d="M253.677,0v82.8l12,3v6.6h-34.441v-6.6l10.2-3V9.6l-10.2-2.4V0.6L253.677,0z"/>
	<path fill="#4D4649" d="M284.275,0v82.8l12,3v6.6h-34.439v-6.6l10.199-3V9.6l-10.199-2.4V0.6L284.275,0z"/>
	<path fill="#4D4649" d="M316.434,28.8v54l9,3v6.6h-31.201v-6.6l10.201-3V38.4L294.232,36v-6.6L316.434,28.8z"/>
	<path fill="#4D4649" d="M345.594,28.8l0.959,6.72c5.6-5.28,11.68-7.92,18.24-7.92c8.479,0,14.898,2.78,19.26,8.34
		c4.359,5.561,6.541,13.46,6.541,23.7c0,4.96-0.66,9.521-1.98,13.679c-1.32,4.161-3.342,7.74-6.061,10.74
		c-2.721,3-6.102,5.34-10.141,7.021c-4.039,1.68-8.779,2.521-14.219,2.521c-3.361,0-6.961-0.562-10.801-1.681V111l12.6,2.399V120
		h-34.199v-6.601l9.6-2.399V38.4L325.193,36v-6.6L345.594,28.8z M347.393,45.6v36c2.479,1.601,6.68,2.399,12.6,2.399
		c12,0,18-7.999,18-24c0-7.039-1.279-12.6-3.84-16.68s-6.479-6.12-11.76-6.12c-3.041,0-5.9,0.702-8.58,2.1
		C351.131,40.701,348.992,42.8,347.393,45.6z"/>
	<path fill="#D71C63" d="M215.878,0.6c5.2,0,7.8,3,7.8,9c0,2.481-0.881,4.401-2.64,5.76c-1.761,1.361-3.642,2.039-5.64,2.039
		c-2.16,0-3.92-0.738-5.28-2.22c-1.361-1.479-2.04-3.54-2.04-6.18c0-2.64,0.739-4.699,2.22-6.18
		C211.777,1.34,213.637,0.6,215.878,0.6z"/>
	<path fill="#D71C63" d="M309.832,0.6c5.201,0,7.801,3,7.801,9c0,2.481-0.881,4.401-2.641,5.76c-1.76,1.361-3.641,2.039-5.64,2.039
		c-2.16,0-3.921-0.738-5.28-2.22c-1.361-1.479-2.039-3.54-2.039-6.18c0-2.64,0.738-4.699,2.219-6.18
		C305.732,1.34,307.592,0.6,309.832,0.6z"/>
</svg>
